<!-- Generator: Adobe Illustrator 22.0.1, SVG Export Plug-In  -->
<svg version="1.1"
	 xmlns="http://www.w3.org/2000/svg" xmlns:xlink="http://www.w3.org/1999/xlink" xmlns:a="http://ns.adobe.com/AdobeSVGViewerExtensions/3.0/"
	 x="0px" y="0px" width="700.6px" height="139.7px" viewBox="0 0 700.6 139.7" style="enable-background:new 0 0 700.6 139.7;"
	 xml:space="preserve">
<style type="text/css">
	.st0{fill:#FFFFFF;}
	.st1{fill:#FFFFFF;stroke:#FFFFFF;stroke-miterlimit:10;}
</style>
<defs>
</defs>
<path class="st0" d="M139,12.6c-7.3-7.5-17.1-11.6-27.7-11.6H0v83.9c0,21.8,17.7,39.5,39.5,39.5h71.8c10.6,0,20.4-4.1,27.7-11.6
	c7.2-7.4,11.2-17.3,11.2-27.9V40.5C150.2,29.9,146.2,20,139,12.6z M72.5,84.7c0,6.5-1,11.8-3.1,16c-2,4.2-4.6,7.6-7.8,10.2
	c-3.2,2.6-6.7,4.4-10.7,5.4c-4,1.1-7.8,1.6-11.7,1.6c-4.5,0-8.7-0.9-12.5-2.7c-3.9-1.8-7.3-4.2-10.2-7.1c-2.9-3-5.2-6.4-6.8-10.4
	c-1.6-4-2.5-8.1-2.5-12.5v-8.7h20.2v6.9c0,2.8,0.4,5.1,1.2,6.9c0.8,1.8,1.8,3.3,3.1,4.3c1.3,1.1,2.6,1.8,4.1,2.3
	c1.5,0.5,2.9,0.7,4.3,0.7c4.6,0,7.8-1.4,9.6-4.2c1.8-2.8,2.7-6.2,2.7-10.3v-56H27.4V7.8h45.1V84.7z M143.3,48.6h-20.2v-6.1
	c0-4-1.1-7.4-3.4-10.3c-2.2-2.9-5.3-4.3-9.1-4.3c-5,0-8.3,1.6-10,4.6c-1.6,3.1-2.5,7-2.5,11.8v39c0,4.1,0.9,7.5,2.7,10.3
	c1.8,2.8,5,4.2,9.6,4.2c1.3,0,2.7-0.2,4.3-0.7c1.5-0.5,2.9-1.2,4.1-2.3c1.3-1.1,2.3-2.5,3.1-4.3c0.8-1.8,1.2-4.2,1.2-6.9v-6.9h20.2
	v8.7c0,4.3-0.8,8.5-2.5,12.5c-1.6,4-3.9,7.4-6.8,10.4c-2.9,3-6.3,5.3-10.2,7.1c-3.9,1.8-8.1,2.7-12.5,2.7c-3.8,0-7.7-0.5-11.7-1.6
	c-4-1.1-7.5-2.9-10.7-5.4c-3.2-2.6-5.8-6-7.8-10.2c-2-4.2-3.1-9.6-3.1-16V40.2c0-4.6,0.8-8.9,2.4-12.8s3.8-7.4,6.7-10.3
	c2.9-2.9,6.4-5.2,10.4-6.8c4-1.6,8.5-2.5,13.3-2.5c4.6,0,8.9,0.8,12.8,2.5c4,1.6,7.4,4,10.3,6.9c2.9,3,5.2,6.5,6.8,10.7
	c1.6,4.2,2.5,8.7,2.5,13.5V48.6z"/>
<g>
	<path class="st1" d="M174.5,37.6h9.6v3.6c0,7.3,2.4,8.4,4.7,8.4c2.7,0,4.7-1.5,4.7-8.4V10H183V1.4h20.1v39.7
		c0,12.8-7,17.4-14.3,17.4s-14.3-4.7-14.3-17.4V37.6z"/>
	<path class="st1" d="M222.9,1.4h10.4l14.8,56.1h-9.6L235,43.1h-13.7l-3.4,14.5h-9.6L222.9,1.4z M233.5,35L230,19.9
		c-0.8-3.2-1.7-8.7-1.7-8.7h-0.2c0,0-0.9,5.5-1.6,8.7L222.9,35H233.5z"/>
	<path class="st1" d="M254.8,44.8c2.4,2.6,5.9,4.7,9.7,4.7c4.3,0,6.9-2.9,6.9-7c0-10.2-19.7-10-19.7-26.1c0-9,6.2-16,16.7-16
		c4.3,0,8.8,1.2,12.4,3.7l-3.5,8.5c-2-1.7-5.8-3.2-8.8-3.2c-4.8,0-7.2,3.2-7.2,6.9c0,10.3,19.8,9.3,19.8,25.8
		c0,8.8-5.5,16.3-16.3,16.3c-5.1,0-10.5-1.8-14.5-5.5L254.8,44.8z"/>
	<path class="st1" d="M308.7,0.5c13.8,0,22.6,11.8,22.6,28.7c0,17.1-8.8,29.3-22.6,29.3c-13.9,0-22.6-12.2-22.6-29.4
		C286.1,12.3,294.8,0.5,308.7,0.5z M308.7,49.2c7.9,0,12.6-8,12.6-20.1c0-11.9-4.7-19.4-12.6-19.4c-8,0-12.7,7.6-12.7,19.4
		C296,41.3,300.8,49.2,308.7,49.2z"/>
	<path class="st1" d="M339.1,1.4h10.1l14.5,31.8c1.5,3.4,2.8,8.5,2.8,8.5h0.3c0,0-0.6-5.3-0.6-8.6V1.4h9v56.1h-10l-14.5-31.8
		c-1.5-3.5-2.8-8.5-2.8-8.5h-0.3c0,0,0.6,5.3,0.6,8.6v31.8h-9.1V1.4z"/>
	<path class="st1" d="M423.2,0.5c4.8,0,10,1.4,13.7,4.7l-4,8.3c-1.9-2.1-5.8-3.9-9.3-3.9c-9.7,0-15,8.7-15,19.4
		c0,11,5.6,20.4,14.9,20.4c4.1,0,7.6-1.8,10.4-4.1l3.9,8.1c-3.6,2.9-8.2,5.1-15.1,5.1c-15.2,0-24-12.5-24-29.1
		C398.6,12.7,407.7,0.5,423.2,0.5z"/>
	<path class="st1" d="M462.6,0.5c13.8,0,22.6,11.8,22.6,28.7c0,17.1-8.8,29.3-22.6,29.3c-13.9,0-22.6-12.2-22.6-29.4
		C440,12.3,448.7,0.5,462.6,0.5z M462.6,49.2c7.9,0,12.6-8,12.6-20.1c0-11.9-4.7-19.4-12.6-19.4c-8,0-12.7,7.6-12.7,19.4
		C449.9,41.3,454.6,49.2,462.6,49.2z"/>
	<path class="st1" d="M493,1.4h10.1l14.5,31.8c1.5,3.4,2.8,8.5,2.8,8.5h0.3c0,0-0.6-5.3-0.6-8.6V1.4h9v56.1h-10l-14.5-31.8
		c-1.5-3.5-2.8-8.5-2.8-8.5h-0.3c0,0,0.6,5.3,0.6,8.6v31.8H493V1.4z"/>
	<path class="st1" d="M559.5,0.5c13.8,0,22.6,11.8,22.6,28.7c0,17.1-8.8,29.3-22.6,29.3c-13.9,0-22.6-12.2-22.6-29.4
		C536.9,12.3,545.6,0.5,559.5,0.5z M559.5,49.2c7.9,0,12.6-8,12.6-20.1c0-11.9-4.7-19.4-12.6-19.4c-8,0-12.7,7.6-12.7,19.4
		C546.8,41.3,551.5,49.2,559.5,49.2z"/>
	<path class="st1" d="M583.9,1.4h10.3l8.6,36.5c0.7,3.2,1.3,8.1,1.3,8.1h0.3c0,0,0.6-4.9,1.4-8.1l8.6-36.5h10.2l-15.5,56.1h-9.9
		L583.9,1.4z"/>
	<path class="st1" d="M630,1.4h26.7V10h-17.1v15h13.7v8.5h-13.7V49h18v8.5H630V1.4z"/>
	<path class="st1" d="M664.9,1.4h16.3c2.1,0,5,0.6,7.3,1.7c5,2.4,8.5,7.7,8.5,14.9c0,7.4-4,13-8.2,15.4v0.2c0,0,0.7,1,1.7,3
		l9.3,20.9h-10.6l-8.5-20.9h-6.1v20.9h-9.6V1.4z M679.7,28.1c3.9,0,7.5-3.4,7.5-9.2c0-3.3-1.1-6.1-3-7.5c-1.3-0.9-3-1.3-4.3-1.3
		h-5.3v18H679.7z"/>
</g>
<g>
	<path class="st0" d="M174,71.3H195v3h-17.9v22.3h15.4v3h-15.4v25H174V71.3z"/>
	<path class="st0" d="M200.4,86.5h3.1v5.9c0,1.7-0.2,3.1-0.2,3.1h0.2c1.3-5.2,5-9.3,9.3-9.3c0.6,0,1.1,0.1,1.6,0.2v3.1
		c-0.2-0.1-0.8-0.2-1.4-0.2c-6.7,0-9.5,10.9-9.5,18.2v16.9h-3.1V86.5z"/>
	<path class="st0" d="M232.3,85.5c9.3,0,15.4,8.6,15.4,19.8s-6,20.1-15.4,20.1c-9.2,0-15.3-8.8-15.3-20.1
		C217,94.1,223.1,85.5,232.3,85.5z M232.3,122.4c7.5,0,12.1-7.4,12.1-17.2c0-9.7-4.6-16.7-12.1-16.7c-7.4,0-12,7.1-12,16.7
		C220.3,115,224.8,122.4,232.3,122.4z"/>
	<path class="st0" d="M255.4,86.5h3.1v4.4c0,1.4-0.2,2.4-0.2,2.4h0.2c1-2.8,4.6-7.8,12.2-7.8c7.5,0,9.7,5.1,9.7,11.9v27.1h-3.1V98.2
		c0-4.6-0.5-9.7-6.9-9.7c-6.7,0-11.7,6-11.7,12.8v23.1h-3.1V86.5z"/>
	<path class="st0" d="M290.3,89.6h-3.9v-2.9h3.9V75.9h3.1v10.8h7.5v2.9h-7.5v20.9c0,10,4.6,11.4,6.9,11.4c0.3,0,0.8,0,1.3-0.2v2.9
		c-0.2,0.1-0.8,0.2-1.6,0.2c-3.2,0-9.7-1.4-9.7-14.1V89.6z"/>
	<path class="st0" d="M322.5,71.3h22.7v3h-19.5v21.9h16v3h-16v22.4h20.6v3h-23.8V71.3z"/>
	<path class="st0" d="M353.3,86.5h3.1v4.4c0,1.4-0.2,2.4-0.2,2.4h0.2c1-2.8,4.6-7.8,12.2-7.8s9.7,5.1,9.7,11.9v27.1H375V98.2
		c0-4.6-0.5-9.7-6.9-9.7c-6.7,0-11.7,6-11.7,12.8v23.1h-3.1V86.5z"/>
	<path class="st0" d="M399,85.5c5.1,0,8.4,2.7,10,6.8h0.2c0,0-0.2-1.4-0.2-3.1v-18h3.1v53.2h-3.1V121c0-1.7,0.2-3,0.2-3h-0.2
		c-1.3,3.9-4.3,7.4-10.3,7.4c-8.7,0-12.8-8.1-12.8-19.9C385.8,93.4,390.5,85.5,399,85.5z M398.9,122.4c6.2,0,10-4.9,10-17
		c0-8.5-2.3-16.9-9.8-16.9c-6.3,0-10,6.2-10,16.9C389.1,115.9,392.3,122.4,398.9,122.4z"/>
	<path class="st0" d="M436.8,71.3h13c12.2,0,20.5,9.7,20.5,26.6c0,16.9-8.3,26.6-20.5,26.6h-13V71.3z M449.4,121.4
		c10.5,0,17.6-8.3,17.6-23.6c0-15.2-7.1-23.6-17.6-23.6H440v47.1H449.4z"/>
	<path class="st0" d="M490.8,85.5c8.9,0,12.2,8.4,12.2,16.7c0,0.8-0.1,1.7-0.2,2.7h-23c0.1,11.6,5.2,17.4,11.9,17.4
		c3.6,0,7.1-1.6,9.4-4.2l1.1,2.7c-2.1,2.5-6.2,4.6-10.7,4.6c-8.9,0-14.9-7.8-14.9-20.2C476.5,92.9,482.3,85.5,490.8,85.5z
		 M499.6,102c-0.2-9.3-3.5-13.5-8.9-13.5c-5.7,0-9.9,4.6-10.9,13.5H499.6z"/>
	<path class="st0" d="M506.7,86.5h3.2l8.8,29.8c0.5,1.8,1,4.1,1,4.1h0.1c0,0,0.4-2.3,0.9-4.1l8.8-29.8h3.2l-11.4,38H518L506.7,86.5z
		"/>
	<path class="st0" d="M550.6,85.5c8.9,0,12.2,8.4,12.2,16.7c0,0.8-0.1,1.7-0.2,2.7h-23c0.1,11.6,5.2,17.4,11.9,17.4
		c3.6,0,7.1-1.6,9.4-4.2l1.1,2.7c-2.1,2.5-6.2,4.6-10.7,4.6c-8.9,0-14.9-7.8-14.9-20.2C536.4,92.9,542.2,85.5,550.6,85.5z
		 M559.5,102c-0.2-9.3-3.5-13.5-8.9-13.5c-5.7,0-9.9,4.6-10.9,13.5H559.5z"/>
	<path class="st0" d="M570.6,71.3h3.1v44.5c0,5.5,1.9,6.1,3.4,6.1c0.4,0,0.7,0,0.9-0.1v2.8c-0.3,0.1-0.6,0.2-1.2,0.2
		c-2.1,0-6.2-0.8-6.2-8V71.3z"/>
	<path class="st0" d="M597.2,85.5c9.3,0,15.4,8.6,15.4,19.8s-6,20.1-15.4,20.1c-9.2,0-15.3-8.8-15.3-20.1
		C582,94.1,588,85.5,597.2,85.5z M597.2,122.4c7.5,0,12.1-7.4,12.1-17.2c0-9.7-4.6-16.7-12.1-16.7c-7.4,0-12,7.1-12,16.7
		C585.2,115,589.8,122.4,597.2,122.4z"/>
	<path class="st0" d="M620.3,86.5h3.1V90c0,1.7-0.2,3-0.2,3h0.2c1.2-3.7,4.1-7.4,10.3-7.4c8.7,0,12.8,8.1,12.8,19.9
		c0,12.1-4.7,19.9-13.2,19.9c-4.6,0-8.5-2.6-9.9-6.8h-0.2c0,0,0.2,1.4,0.2,3.1v18h-3.1V86.5z M633.2,122.4c6.3,0,10-6.2,10-16.9
		c0-10.4-3.3-16.9-9.8-16.9c-6.2,0-10,4.9-10,17C623.4,114.1,625.5,122.4,633.2,122.4z"/>
	<path class="st0" d="M666.6,85.5c8.9,0,12.2,8.4,12.2,16.7c0,0.8-0.1,1.7-0.2,2.7h-23c0.1,11.6,5.2,17.4,11.9,17.4
		c3.6,0,7.1-1.6,9.4-4.2l1.1,2.7c-2.1,2.5-6.2,4.6-10.7,4.6c-8.9,0-14.9-7.8-14.9-20.2C652.3,92.9,658.2,85.5,666.6,85.5z
		 M675.5,102c-0.2-9.3-3.5-13.5-8.9-13.5c-5.7,0-9.9,4.6-10.9,13.5H675.5z"/>
	<path class="st0" d="M686.5,86.5h3.1v5.9c0,1.7-0.2,3.1-0.2,3.1h0.2c1.3-5.2,5-9.3,9.3-9.3c0.6,0,1.1,0.1,1.6,0.2v3.1
		c-0.2-0.1-0.8-0.2-1.4-0.2c-6.7,0-9.5,10.9-9.5,18.2v16.9h-3.1V86.5z"/>
</g>
</svg>
