<!-- Generator: Adobe Illustrator 22.0.1, SVG Export Plug-In  -->
<svg version="1.1"
	 xmlns="http://www.w3.org/2000/svg" xmlns:xlink="http://www.w3.org/1999/xlink" xmlns:a="http://ns.adobe.com/AdobeSVGViewerExtensions/3.0/"
	 x="0px" y="0px" width="722.5px" height="148.7px" viewBox="0 0 722.5 148.7" style="enable-background:new 0 0 722.5 148.7;"
	 xml:space="preserve">
<style type="text/css">
	.st0{fill:#FFFFFF;}
	.st1{fill:#FFFFFF;stroke:#FFFFFF;stroke-miterlimit:10;}
</style>
<defs>
</defs>
<path class="st0" d="M162.3,13.6C153.8,4.8,142.3,0,130,0H0v97.9c0,25.4,20.7,46.1,46.1,46.1H130c12.3,0,23.8-4.8,32.3-13.6
	c8.4-8.7,13.1-20.2,13.1-32.6V46.1C175.4,33.8,170.7,22.3,162.3,13.6z M84.6,97.8c0,7.5-1.2,13.8-3.6,18.7
	c-2.4,4.9-5.4,8.9-9.1,11.9c-3.7,3-7.8,5.1-12.5,6.3c-4.6,1.2-9.2,1.8-13.6,1.8c-5.2,0-10.1-1-14.7-3.1c-4.5-2.1-8.5-4.8-11.9-8.3
	c-3.4-3.5-6-7.5-8-12.1c-1.9-4.6-2.9-9.5-2.9-14.5V88.4H32v8.1c0,3.2,0.5,5.9,1.4,8.1c0.9,2.2,2.1,3.8,3.6,5.1
	c1.5,1.2,3.1,2.1,4.8,2.7c1.8,0.5,3.4,0.8,5,0.8c5.4,0,9.1-1.6,11.2-4.8c2.1-3.2,3.1-7.2,3.1-12V30.9H32V8h52.6V97.8z M167.3,55.7
	h-23.5v-7.1c0-4.6-1.3-8.6-3.9-12c-2.6-3.4-6.2-5.1-10.6-5.1c-5.8,0-9.7,1.8-11.7,5.4c-1.9,3.6-2.9,8.2-2.9,13.7v45.5
	c0,4.8,1,8.8,3.1,12c2.1,3.2,5.8,4.8,11.2,4.8c1.5,0,3.2-0.3,5-0.8c1.8-0.5,3.4-1.4,4.8-2.7c1.5-1.2,2.7-2.9,3.6-5.1
	c0.9-2.2,1.4-4.8,1.4-8.1v-8.1h23.5v10.2c0,5.1-1,9.9-2.9,14.5c-1.9,4.6-4.6,8.7-8,12.1c-3.4,3.5-7.3,6.2-11.9,8.3
	c-4.5,2.1-9.4,3.1-14.7,3.1c-4.5,0-9-0.6-13.6-1.8c-4.6-1.2-8.8-3.3-12.5-6.3c-3.7-3-6.7-7-9.1-11.9c-2.4-4.9-3.6-11.2-3.6-18.7v-52
	c0-5.4,0.9-10.4,2.8-15s4.5-8.6,7.8-12c3.4-3.4,7.4-6,12.1-8C118.6,9,123.8,8,129.4,8c5.4,0,10.4,1,15,2.9c4.6,1.9,8.6,4.6,12,8.1
	c3.4,3.5,6,7.6,8,12.5c1.9,4.8,2.9,10.1,2.9,15.8V55.7z"/>
<g>
	<path class="st1" d="M210.1,46.9h9.4v3.5c0,7.2,2.4,8.2,4.6,8.2c2.6,0,4.5-1.5,4.5-8.2V20h-10.3v-8.3h19.6v38.6
		c0,12.5-6.8,16.9-13.9,16.9s-13.9-4.6-13.9-16.9V46.9z"/>
	<path class="st1" d="M257.2,11.7h10.2l14.4,54.6h-9.4L269,52.2h-13.4l-3.3,14.1h-9.4L257.2,11.7z M267.5,44.4l-3.5-14.7
		c-0.8-3.2-1.6-8.5-1.6-8.5h-0.2c0,0-0.8,5.3-1.5,8.5l-3.5,14.7H267.5z"/>
	<path class="st1" d="M288.2,53.9c2.4,2.5,5.8,4.6,9.5,4.6c4.2,0,6.7-2.8,6.7-6.8c0-9.9-19.2-9.7-19.2-25.5c0-8.8,6-15.5,16.2-15.5
		c4.2,0,8.5,1.2,12.1,3.6l-3.4,8.3c-1.9-1.6-5.7-3.2-8.5-3.2c-4.7,0-7,3.1-7,6.7c0,10,19.3,9.1,19.3,25.1c0,8.6-5.4,15.8-15.8,15.8
		c-5,0-10.2-1.8-14.1-5.3L288.2,53.9z"/>
	<path class="st1" d="M340.7,10.8c13.5,0,22,11.5,22,27.9c0,16.6-8.5,28.5-22,28.5c-13.5,0-22-11.8-22-28.6
		C318.7,22.3,327.2,10.8,340.7,10.8z M340.7,58.2c7.7,0,12.3-7.8,12.3-19.5c0-11.6-4.6-18.9-12.3-18.9c-7.8,0-12.4,7.4-12.4,18.8
		C328.3,50.5,333,58.2,340.7,58.2z"/>
	<path class="st1" d="M370.3,11.7h9.8l14.1,30.9c1.5,3.3,2.8,8.3,2.8,8.3h0.3c0,0-0.5-5.2-0.5-8.4V11.7h8.8v54.6h-9.8l-14.1-31
		c-1.5-3.4-2.8-8.3-2.8-8.3h-0.3c0,0,0.5,5.2,0.5,8.4v30.9h-8.8V11.7z"/>
	<path class="st1" d="M452.2,10.8c4.7,0,9.8,1.4,13.3,4.5l-3.9,8.1c-1.8-2.1-5.7-3.8-9.1-3.8c-9.5,0-14.6,8.5-14.6,18.9
		c0,10.7,5.5,19.8,14.5,19.8c4,0,7.4-1.8,10.2-4l3.8,7.9c-3.5,2.8-8,4.9-14.7,4.9c-14.8,0-23.4-12.1-23.4-28.3
		C428.2,22.6,437.1,10.8,452.2,10.8z"/>
	<path class="st1" d="M490.5,10.8c13.5,0,22,11.5,22,27.9c0,16.6-8.5,28.5-22,28.5c-13.5,0-22-11.8-22-28.6
		C468.5,22.3,477,10.8,490.5,10.8z M490.5,58.2c7.7,0,12.3-7.8,12.3-19.5c0-11.6-4.6-18.9-12.3-18.9c-7.8,0-12.4,7.4-12.4,18.8
		C478.1,50.5,482.8,58.2,490.5,58.2z"/>
	<path class="st1" d="M520.1,11.7h9.8L544,42.6c1.5,3.3,2.8,8.3,2.8,8.3h0.3c0,0-0.5-5.2-0.5-8.4V11.7h8.8v54.6h-9.8l-14.1-31
		c-1.5-3.4-2.8-8.3-2.8-8.3h-0.3c0,0,0.5,5.2,0.5,8.4v30.9h-8.8V11.7z"/>
	<path class="st1" d="M584.8,10.8c13.5,0,22,11.5,22,27.9c0,16.6-8.5,28.5-22,28.5c-13.5,0-22-11.8-22-28.6
		C562.8,22.3,571.3,10.8,584.8,10.8z M584.8,58.2c7.7,0,12.3-7.8,12.3-19.5c0-11.6-4.6-18.9-12.3-18.9c-7.8,0-12.4,7.4-12.4,18.8
		C572.4,50.5,577,58.2,584.8,58.2z"/>
	<path class="st1" d="M608.6,11.7h10.1l8.4,35.5c0.7,3.2,1.3,7.9,1.3,7.9h0.3c0,0,0.6-4.8,1.4-7.9l8.4-35.5h9.9l-15.1,54.6h-9.6
		L608.6,11.7z"/>
	<path class="st1" d="M653.5,11.7h26V20h-16.6v14.6h13.4v8.3h-13.4V58h17.5v8.3h-26.9V11.7z"/>
	<path class="st1" d="M687.5,11.7h15.8c2.1,0,4.8,0.5,7.2,1.7c4.8,2.3,8.2,7.5,8.2,14.5c0,7.2-3.8,12.6-8,15V43c0,0,0.7,1,1.6,2.9
		l9.1,20.3h-10.3l-8.3-20.4h-5.9v20.4h-9.4V11.7z M701.9,37.6c3.8,0,7.3-3.3,7.3-8.9c0-3.2-1.1-5.9-2.9-7.3
		c-1.2-0.8-2.9-1.3-4.2-1.3h-5.2v17.5H701.9z"/>
</g>
<g>
	<path class="st1" d="M209.6,81.6h20.5v2.9h-17.4v21.7h15v2.9h-15v24.3h-3.1V81.6z"/>
	<path class="st1" d="M235.3,96.4h3v5.8c0,1.7-0.1,3-0.1,3h0.1c1.3-5,4.9-9.1,9-9.1c0.6,0,1,0.1,1.6,0.2v3c-0.2-0.1-0.8-0.1-1.3-0.1
		c-6.5,0-9.2,10.6-9.2,17.8v16.4h-3V96.4z"/>
	<path class="st1" d="M266.3,95.5c9.1,0,14.9,8.4,14.9,19.2s-5.8,19.5-14.9,19.5c-9,0-14.9-8.6-14.9-19.5
		C251.4,103.8,257.4,95.5,266.3,95.5z M266.3,131.4c7.3,0,11.8-7.3,11.8-16.7c0-9.4-4.4-16.3-11.8-16.3c-7.3,0-11.7,6.9-11.7,16.3
		C254.6,124.2,259.1,131.4,266.3,131.4z"/>
	<path class="st1" d="M288.8,96.4h3v4.3c0,1.3-0.2,2.4-0.2,2.4h0.1c1-2.7,4.5-7.5,11.8-7.5c7.3,0,9.4,5,9.4,11.5v26.3h-3v-25.5
		c0-4.4-0.5-9.5-6.7-9.5c-6.5,0-11.4,5.8-11.4,12.5v22.5h-3V96.4z"/>
	<path class="st1" d="M322.8,99.5H319v-2.8h3.8V86.1h3v10.5h7.3v2.8h-7.3v20.3c0,9.8,4.4,11.1,6.7,11.1c0.3,0,0.8,0,1.3-0.1v2.8
		c-0.2,0.1-0.8,0.1-1.6,0.1c-3.1,0-9.5-1.4-9.5-13.7V99.5z"/>
	<path class="st1" d="M354.1,81.6h22.1v2.9h-19v21.3h15.6v2.9h-15.6v21.8h20v2.9h-23.2V81.6z"/>
	<path class="st1" d="M384.1,96.4h3v4.3c0,1.3-0.2,2.4-0.2,2.4h0.1c1-2.7,4.5-7.5,11.8-7.5c7.3,0,9.4,5,9.4,11.5v26.3h-3v-25.5
		c0-4.4-0.5-9.5-6.7-9.5c-6.5,0-11.4,5.8-11.4,12.5v22.5h-3V96.4z"/>
	<path class="st1" d="M428.5,95.5c5,0,8.1,2.7,9.7,6.7h0.1c0,0-0.2-1.3-0.2-3V81.6h3v51.8h-3V130c0-1.7,0.2-3,0.2-3h-0.1
		c-1.3,3.8-4.2,7.3-10.1,7.3c-8.5,0-12.4-7.9-12.4-19.4C415.7,103.2,420.3,95.5,428.5,95.5z M428.5,131.4c6,0,9.8-4.8,9.8-16.6
		c0-8.3-2.2-16.4-9.5-16.4c-6.1,0-9.8,6.1-9.8,16.5C418.9,125.1,422.1,131.4,428.5,131.4z"/>
	<path class="st1" d="M465.4,81.6H478c11.9,0,20,9.5,20,25.9c0,16.5-8.1,25.9-20,25.9h-12.7V81.6z M477.7,130.5
		c10.2,0,17.1-8.1,17.1-22.9c0-14.8-6.9-22.9-17.1-22.9h-9.2v45.9H477.7z"/>
	<path class="st1" d="M517.9,95.5c8.7,0,11.8,8.1,11.8,16.3c0,0.7-0.1,1.7-0.1,2.6h-22.4c0.1,11.3,5,16.9,11.5,16.9
		c3.5,0,6.9-1.6,9.2-4.1l1,2.6c-2.1,2.4-6.1,4.4-10.4,4.4c-8.7,0-14.5-7.5-14.5-19.7C504,102.7,509.7,95.5,517.9,95.5z M526.6,111.5
		c-0.1-9-3.4-13.1-8.7-13.1c-5.5,0-9.6,4.4-10.6,13.1H526.6z"/>
	<path class="st1" d="M533.4,96.4h3.1l8.6,29c0.5,1.8,1,4,1,4h0.1c0,0,0.4-2.2,0.9-4l8.6-29h3.1l-11.1,37h-3.2L533.4,96.4z"/>
	<path class="st1" d="M576.2,95.5c8.7,0,11.8,8.1,11.8,16.3c0,0.7-0.1,1.7-0.1,2.6h-22.4c0.1,11.3,5,16.9,11.5,16.9
		c3.5,0,6.9-1.6,9.2-4.1l1,2.6c-2.1,2.4-6.1,4.4-10.4,4.4c-8.7,0-14.5-7.5-14.5-19.7C562.3,102.7,568,95.5,576.2,95.5z M584.9,111.5
		c-0.1-9-3.4-13.1-8.7-13.1c-5.5,0-9.6,4.4-10.6,13.1H584.9z"/>
	<path class="st1" d="M595.6,81.6h3V125c0,5.3,1.8,5.9,3.3,5.9c0.4,0,0.7,0,0.9-0.1v2.7c-0.3,0.1-0.6,0.1-1.2,0.1
		c-2,0-6.1-0.8-6.1-7.8V81.6z"/>
	<path class="st1" d="M621.6,95.5c9.1,0,14.9,8.4,14.9,19.2s-5.8,19.5-14.9,19.5c-9,0-14.9-8.6-14.9-19.5
		C606.7,103.8,612.6,95.5,621.6,95.5z M621.6,131.4c7.3,0,11.8-7.3,11.8-16.7c0-9.4-4.4-16.3-11.8-16.3c-7.3,0-11.7,6.9-11.7,16.3
		C609.9,124.2,614.3,131.4,621.6,131.4z"/>
	<path class="st1" d="M644,96.4h3v3.4c0,1.7-0.2,3-0.2,3h0.1c1.2-3.6,4-7.3,10.1-7.3c8.4,0,12.4,7.9,12.4,19.4
		c0,11.8-4.6,19.4-12.9,19.4c-4.4,0-8.3-2.5-9.6-6.7h-0.1c0,0,0.2,1.3,0.2,3v17.5h-3V96.4z M656.6,131.4c6.1,0,9.8-6.1,9.8-16.5
		c0-10.1-3.2-16.5-9.5-16.5c-6.1,0-9.8,4.8-9.8,16.6C647,123.3,649.1,131.4,656.6,131.4z"/>
	<path class="st1" d="M689.1,95.5c8.7,0,11.8,8.1,11.8,16.3c0,0.7-0.1,1.7-0.1,2.6h-22.4c0.1,11.3,5,16.9,11.5,16.9
		c3.5,0,6.9-1.6,9.2-4.1l1,2.6c-2.1,2.4-6.1,4.4-10.4,4.4c-8.7,0-14.5-7.5-14.5-19.7C675.2,102.7,680.9,95.5,689.1,95.5z
		 M697.8,111.5c-0.1-9-3.4-13.1-8.7-13.1c-5.5,0-9.6,4.4-10.6,13.1H697.8z"/>
	<path class="st1" d="M708.4,96.4h3v5.8c0,1.7-0.1,3-0.1,3h0.1c1.3-5,4.9-9.1,9-9.1c0.6,0,1,0.1,1.6,0.2v3c-0.2-0.1-0.8-0.1-1.3-0.1
		c-6.5,0-9.2,10.6-9.2,17.8v16.4h-3V96.4z"/>
</g>
</svg>
